# xmcd
#
# Track frame offsets: 
#        150
#        12946
#        25041
#        37490
#        51193
#        64251
#        76106
#        88603
#        101963
#        115530
#        128767
#        140991
#        152335
#        164666
#        174921
#        185872
#        197041
#        208341
#        218872
#        231957
#        243966
#        256745
#        271036
#        284775
#
# Disc length: 3959 seconds
#
# Revision: 0
# Processed by: cddbd v1.5.2PL0 Copyright (c) Steve Scherf et al.
# Submitted via: ExactAudioCopy v0.99pb4
#
DISCID=630f7518
DTITLE=T-Bone Walker - Trailblazing the Blues CD2
DYEAR=2008
DGENRE=Blues
TTITLE0=Prison Blues
TTITLE1=She's My Old Time Used to Be
TTITLE2=T-Bone Jumps Again
TTITLE3=T-Bone Shuffle
TTITLE4=T-Bone Shuffle
TTITLE5=That's Better for Me
TTITLE6=Too Much Trouble Blues
TTITLE7=Vacation Blues
TTITLE8=West Side Baby
TTITLE9=You're My Best Poker Hand
TTITLE10=Baby Broke My Heart
TTITLE11=Evil Hearted Woman
TTITLE12=Glamour Girl
TTITLE13=I Walked Away
TTITLE14=Look Me in the Eye
TTITLE15=Strollin' with Bone
TTITLE16=Hustle Is On
TTITLE17=Travellin' Blues
TTITLE18=You Don't Love Me
TTITLE19=Alimony Blues
TTITLE20=Blues Is a Woman
TTITLE21=Cold, Cold Feeling
TTITLE22=Get Those Blues off Me
TTITLE23=I Get So Weary
EXTD=
EXTT0=
EXTT1=
EXTT2=
EXTT3=
EXTT4=
EXTT5=
EXTT6=
EXTT7=
EXTT8=
EXTT9=
EXTT10=
EXTT11=
EXTT12=
EXTT13=
EXTT14=
EXTT15=
EXTT16=
EXTT17=
EXTT18=
EXTT19=
EXTT20=
EXTT21=
EXTT22=
EXTT23=
PLAYORDER=
